<mxfile host="app.diagrams.net" agent="Mozilla/5.0 (Windows NT 10.0; Win64; x64) AppleWebKit/537.36 (KHTML, like Gecko) Chrome/138.0.0.0 Safari/537.36 Edg/138.0.0.0" version="28.0.4">
  <diagram name="Page-1" id="OwMor4095EOcRPpNqnnU">
    <mxGraphModel dx="1317" dy="773" grid="1" gridSize="10" guides="1" tooltips="1" connect="1" arrows="1" fold="1" page="1" pageScale="1" pageWidth="1169" pageHeight="827" background="none" math="0" shadow="0">
      <root>
        <mxCell id="0" />
        <mxCell id="1" parent="0" />
        <mxCell id="xzNsJqbPr1EgRHQ_QwE4-1" value="&lt;font face=&quot;Verdana&quot; style=&quot;font-size: 16px;&quot;&gt;&lt;b style=&quot;&quot;&gt;Stage 1&lt;/b&gt;&lt;/font&gt;" style="shape=callout;whiteSpace=wrap;html=1;perimeter=calloutPerimeter;fillColor=#a20025;strokeColor=#6F0000;fontColor=#ffffff;" vertex="1" parent="1">
          <mxGeometry x="110" y="10" width="100" height="70" as="geometry" />
        </mxCell>
        <mxCell id="xzNsJqbPr1EgRHQ_QwE4-2" value="&lt;font face=&quot;Verdana&quot; style=&quot;font-size: 17px; color: rgb(0, 0, 255);&quot;&gt;&lt;b&gt;Data Collection and Database construction&lt;/b&gt;&lt;/font&gt;" style="rounded=1;whiteSpace=wrap;html=1;fillColor=#fad9d5;strokeColor=#ae4132;" vertex="1" parent="1">
          <mxGeometry x="10" y="62" width="300" height="60" as="geometry" />
        </mxCell>
        <mxCell id="xzNsJqbPr1EgRHQ_QwE4-3" value="&lt;font face=&quot;Verdana&quot; style=&quot;font-size: 15px; color: rgb(255, 51, 153);&quot;&gt;&lt;b&gt;Storm Surge Flood Inventory Map&lt;/b&gt;&lt;/font&gt;" style="rounded=1;whiteSpace=wrap;html=1;fillColor=#fad7ac;strokeColor=#b46504;" vertex="1" parent="1">
          <mxGeometry x="30" y="136" width="210" height="70" as="geometry" />
        </mxCell>
        <mxCell id="xzNsJqbPr1EgRHQ_QwE4-6" value="&lt;font face=&quot;Verdana&quot; style=&quot;font-size: 14px;&quot;&gt;&lt;b&gt;Non-Flood Points&lt;/b&gt;&lt;/font&gt;" style="rhombus;whiteSpace=wrap;html=1;dashed=1;dashPattern=1 4;strokeWidth=0;fillColor=#d0cee2;strokeColor=#56517e;" vertex="1" parent="1">
          <mxGeometry x="242" y="203" width="90" height="80" as="geometry" />
        </mxCell>
        <mxCell id="xzNsJqbPr1EgRHQ_QwE4-7" value="&lt;font face=&quot;Verdana&quot; style=&quot;font-size: 14px;&quot;&gt;&lt;b&gt;Flood Points&lt;/b&gt;&lt;/font&gt;" style="rhombus;whiteSpace=wrap;html=1;dashed=1;dashPattern=1 4;strokeWidth=0;fillColor=#d0cee2;strokeColor=#56517e;" vertex="1" parent="1">
          <mxGeometry x="354" y="203" width="90" height="80" as="geometry" />
        </mxCell>
        <mxCell id="xzNsJqbPr1EgRHQ_QwE4-8" value="&lt;font face=&quot;Verdana&quot; style=&quot;font-size: 16px; color: rgb(255, 51, 153);&quot;&gt;&lt;b style=&quot;&quot;&gt;Conditioning Parameters&lt;/b&gt;&lt;/font&gt;" style="rounded=1;whiteSpace=wrap;html=1;fillColor=#fad7ac;strokeColor=#b46504;" vertex="1" parent="1">
          <mxGeometry x="30" y="330" width="200" height="40" as="geometry" />
        </mxCell>
        <mxCell id="xzNsJqbPr1EgRHQ_QwE4-9" value="&lt;font face=&quot;Verdana&quot; style=&quot;font-size: 16px; color: rgb(0, 255, 0);&quot;&gt;&lt;b style=&quot;&quot;&gt;GIS Database&lt;/b&gt;&lt;/font&gt;" style="ellipse;whiteSpace=wrap;html=1;aspect=fixed;fillColor=#a20025;strokeColor=#6F0000;fontColor=#ffffff;" vertex="1" parent="1">
          <mxGeometry x="292" y="380" width="95" height="95" as="geometry" />
        </mxCell>
        <mxCell id="xzNsJqbPr1EgRHQ_QwE4-12" value="" style="endArrow=none;html=1;rounded=0;" edge="1" parent="1">
          <mxGeometry width="50" height="50" relative="1" as="geometry">
            <mxPoint x="240" y="170" as="sourcePoint" />
            <mxPoint x="400" y="170" as="targetPoint" />
          </mxGeometry>
        </mxCell>
        <mxCell id="xzNsJqbPr1EgRHQ_QwE4-13" value="" style="endArrow=classic;html=1;rounded=0;" edge="1" parent="1">
          <mxGeometry width="50" height="50" relative="1" as="geometry">
            <mxPoint x="400" y="170" as="sourcePoint" />
            <mxPoint x="400" y="200" as="targetPoint" />
          </mxGeometry>
        </mxCell>
        <mxCell id="xzNsJqbPr1EgRHQ_QwE4-14" value="" style="endArrow=classic;html=1;rounded=0;" edge="1" parent="1">
          <mxGeometry width="50" height="50" relative="1" as="geometry">
            <mxPoint x="287" y="170" as="sourcePoint" />
            <mxPoint x="287" y="200" as="targetPoint" />
          </mxGeometry>
        </mxCell>
        <mxCell id="xzNsJqbPr1EgRHQ_QwE4-15" value="" style="shape=partialRectangle;whiteSpace=wrap;html=1;bottom=0;top=0;fillColor=none;" vertex="1" parent="1">
          <mxGeometry x="285" y="283" width="115" height="37" as="geometry" />
        </mxCell>
        <mxCell id="xzNsJqbPr1EgRHQ_QwE4-16" value="" style="line;strokeWidth=2;html=1;" vertex="1" parent="1">
          <mxGeometry x="285" y="316" width="116" height="10" as="geometry" />
        </mxCell>
        <mxCell id="xzNsJqbPr1EgRHQ_QwE4-17" value="" style="endArrow=classic;html=1;rounded=0;" edge="1" parent="1">
          <mxGeometry width="50" height="50" relative="1" as="geometry">
            <mxPoint x="341.83000000000004" y="320" as="sourcePoint" />
            <mxPoint x="341.83000000000004" y="380" as="targetPoint" />
          </mxGeometry>
        </mxCell>
      </root>
    </mxGraphModel>
  </diagram>
</mxfile>
